<svg width="28" height="23" viewBox="0 0 28 23" fill="none" xmlns="http://www.w3.org/2000/svg">
<rect opacity="0.08" width="28" height="23" rx="6" fill="#3c3cc8" fill-opacity="0.4"/>
<path fill-rule="evenodd" clip-rule="evenodd" d="M7.33301 7.39776C7.33301 6.94633 7.33301 6.72061 7.38657 6.56361C7.53643 6.12436 7.96881 5.84595 8.4307 5.89128C8.59579 5.90749 8.80128 6.00089 9.21224 6.18769L15.5907 9.08699C17.6268 10.0125 18.6448 10.4752 18.9606 11.1164C19.2351 11.6736 19.2351 12.3267 18.9606 12.8839C18.6448 13.5251 17.6268 13.9879 15.5907 14.9133L9.21225 17.8126C8.80128 17.9994 8.59579 18.0928 8.4307 18.109C7.96881 18.1544 7.53643 17.876 7.38657 17.4367C7.33301 17.2797 7.33301 17.054 7.33301 16.6026C7.33301 15.8358 7.33301 15.4524 7.40934 15.1205C7.61957 14.2064 8.24518 13.4433 9.10025 13.0579C9.41072 12.918 9.78668 12.8428 10.5386 12.6924L13.9997 12.0002L10.5386 11.3079C9.78668 11.1576 9.41072 11.0824 9.10025 10.9424C8.24518 10.557 7.61957 9.7939 7.40934 8.87986C7.33301 8.54797 7.33301 8.16457 7.33301 7.39776Z" fill="#3c3cc8"/>
</svg>
