<svg width="21" height="21" viewBox="0 0 21 21" fill="none" xmlns="http://www.w3.org/2000/svg">
<g clip-path="url(#clip0)">
<path d="M13.125 1.75001C13.7395 1.74993 14.3432 1.91165 14.8754 2.21889C15.4075 2.52613 15.8494 2.96806 16.1567 3.50026C16.4639 4.03246 16.6255 4.63616 16.6254 5.25066C16.6253 5.86516 16.4634 6.4688 16.156 7.00088L20.125 7.00001V8.75001H18.375V17.5C18.375 17.7321 18.2828 17.9546 18.1187 18.1187C17.9546 18.2828 17.7321 18.375 17.5 18.375H3.5C3.26794 18.375 3.04538 18.2828 2.88128 18.1187C2.71719 17.9546 2.625 17.7321 2.625 17.5V8.75001H0.875V7.00001L4.844 7.00088C4.40988 6.24916 4.2706 5.36293 4.45321 4.51428C4.63582 3.66563 5.12728 2.91513 5.83217 2.40849C6.53706 1.90185 7.40507 1.67524 8.26766 1.77265C9.13024 1.87006 9.92585 2.28455 10.5 2.93563C10.8278 2.56234 11.2316 2.26343 11.6843 2.05895C12.137 1.85446 12.6282 1.74913 13.125 1.75001V1.75001ZM11.375 8.75001H9.625V17.5H11.375V8.75001ZM7.875 3.50001C7.42089 3.49797 6.98377 3.67254 6.65599 3.98684C6.32821 4.30113 6.13544 4.73053 6.1184 5.18433C6.10136 5.63812 6.26139 6.08077 6.56468 6.41876C6.86797 6.75675 7.29077 6.9636 7.74375 6.99563L7.875 7.00001H9.625V5.25001C9.62502 4.83181 9.47528 4.42743 9.20289 4.11011C8.93051 3.79278 8.55349 3.58349 8.14013 3.52013L8.00538 3.50438L7.875 3.50001ZM13.125 3.50001C12.6835 3.49987 12.2583 3.66661 11.9345 3.96682C11.6108 4.26702 11.4125 4.67849 11.3794 5.11876L11.375 5.25001V7.00001H13.125C13.5665 7.00015 13.9917 6.8334 14.3155 6.5332C14.6392 6.23299 14.8375 5.82152 14.8706 5.38126L14.875 5.25001C14.875 4.78588 14.6906 4.34076 14.3624 4.01257C14.0342 3.68438 13.5891 3.50001 13.125 3.50001V3.50001Z" fill="#323438" fill-opacity="0.8"/>
</g>
<defs>
<clipPath id="clip0">
<rect width="21" height="21" fill="white"/>
</clipPath>
</defs>
</svg>
