<svg width="21" height="21" viewBox="0 0 21 21" fill="none" xmlns="http://www.w3.org/2000/svg">
<g clip-path="url(#clip0)">
<path d="M19.25 14.8768C19.2496 16.0734 18.8406 17.234 18.0906 18.1664C17.3407 19.0989 16.2948 19.7473 15.1261 20.0043L14.5679 18.3295C15.0791 18.2453 15.5652 18.0488 15.9913 17.754C16.4174 17.4593 16.7728 17.0737 17.0319 16.625H14.875C14.4109 16.625 13.9658 16.4406 13.6376 16.1124C13.3094 15.7842 13.125 15.3391 13.125 14.875V11.375C13.125 10.9109 13.3094 10.4658 13.6376 10.1376C13.9658 9.80938 14.4109 9.625 14.875 9.625H17.4457C17.2322 7.93353 16.4088 6.37811 15.13 5.25059C13.8512 4.12307 12.2049 3.50094 10.5 3.50094C8.79511 3.50094 7.14881 4.12307 5.87 5.25059C4.59119 6.37811 3.76778 7.93353 3.55425 9.625H6.125C6.58913 9.625 7.03425 9.80938 7.36244 10.1376C7.69063 10.4658 7.875 10.9109 7.875 11.375V14.875C7.875 15.3391 7.69063 15.7842 7.36244 16.1124C7.03425 16.4406 6.58913 16.625 6.125 16.625H3.5C3.03587 16.625 2.59075 16.4406 2.26256 16.1124C1.93437 15.7842 1.75 15.3391 1.75 14.875V10.5C1.75 5.66738 5.66738 1.75 10.5 1.75C15.3326 1.75 19.25 5.66738 19.25 10.5V14.8768Z" fill="#323438" fill-opacity="0.8"/>
</g>
<defs>
<clipPath id="clip0">
<rect width="21" height="21" fill="white"/>
</clipPath>
</defs>
</svg>
